<?xml version="1.0"?><svg width="744.09448819" height="1052.3622047" xmlns="http://www.w3.org/2000/svg">
 <title>checked flag red</title>
 <metadata id="metadata7">image/svg+xmlCheckered flagCheckered flag racing race cars</metadata>
 <g>
  <title>Layer 1</title>
  <g id="layer1">
   <path d="m705.905151,1001.395691c-1.382141,-3.886658 -32.216858,-101.867981 -68.521301,-217.736145l-66.008118,-210.669617l-14.592651,-10.879456c-26.335999,-19.634705 -57.358917,-28.730713 -79.932831,-23.436462c-33.991486,7.971924 -62.962708,39.33905 -113.695343,123.098083c-37.055054,61.177612 -57.257935,86.443665 -81.032715,101.341187c-18.144348,11.369324 -18.732971,11.516174 -45.772247,11.412781c-30.214142,-0.115723 -41.713821,-4.139526 -66.240585,-23.17804l-12.653961,-9.82251l-69.719681,-222.707703c-38.345818,-122.489319 -69.724268,-224.529938 -69.729855,-226.75705c-0.006973,-2.778168 3.89925,-1.266785 12.443905,4.81488c29.733013,21.16217 60.320953,30.31781 82.156876,24.591339c33.895782,-8.889191 60.548233,-37.527832 109.792877,-117.975021c33.059647,-54.00708 53.478592,-82.133316 70.030624,-96.464134c34.246582,-29.65081 75.929413,-31.316803 117.505219,-4.696396c15.640533,10.014465 16.079956,10.135117 16.079956,4.4151c0,-3.546768 9.937958,-8.813179 17.313538,-9.174927c1.653534,-0.081093 283.956909,896.252434 283.956909,901.583794c0,1.124756 -2.56958,2.863281 -5.710205,3.86322c-3.140503,1 -7.385681,2.633972 -9.433533,3.63092c-2.453247,1.194275 -4.581116,-0.598328 -6.236877,-5.253845zm-436.539886,-236.980774c6.505066,-3.135925 18.769196,-11.985962 27.253571,-19.666992l15.426056,-13.965332l-3.970886,-12.685974c-2.18399,-6.977173 -8.347809,-26.540527 -13.697571,-43.47406l-9.726624,-30.78833l-14.123627,13.486816c-13.992004,13.361145 -34.889587,25.518066 -43.865219,25.518066c-2.560501,0 -4.655441,1.567688 -4.655441,3.483826c0,1.916138 5.519623,21.553589 12.265778,43.638611c13.831314,45.280151 13.437256,44.893127 35.093964,34.453369zm-49.731934,-80.099304c0,-0.843201 -5.871201,-20.093872 -13.047165,-42.779297c-7.175919,-22.685364 -13.047134,-42.213928 -13.047134,-43.396851c0,-1.182922 6.138092,-4.397949 13.640182,-7.144775c14.44632,-5.289246 24.778381,-12.215576 38.889786,-26.070313c4.754211,-4.667908 9.1754,-8.487 9.824783,-8.487c0.649368,0 6.794388,17.944519 13.655594,39.876648c6.861176,21.93219 13.477203,41.231079 14.702332,42.886292c2.50824,3.388916 15.093445,-13.363159 37.871765,-50.410217c7.887421,-12.828247 14.566986,-23.324097 14.843384,-23.324097c0.276428,0 6.188446,18.283142 13.137848,40.62915c6.949463,22.346008 13.466248,40.629211 14.481781,40.629211c1.015503,0 6.934875,-8.464478 13.154083,-18.809875c6.219238,-10.345398 17.535004,-27.10968 25.146271,-37.254089l13.838562,-18.444336l-11.59317,-37.232605c-6.37619,-20.477905 -12.329742,-39.837799 -13.230133,-43.021851c-1.467468,-5.189575 -2.758148,-4.410187 -12.459747,7.523865c-5.952515,7.322266 -17.745911,24.486206 -26.207611,38.14209c-8.46167,13.655945 -15.748291,24.828918 -16.192474,24.828918c-0.444183,0 -6.882324,-19.708679 -14.306915,-43.796936c-7.424652,-24.088348 -13.778351,-43.387207 -14.119385,-42.886292c-0.341034,0.500793 -9.147461,14.453674 -19.569855,31.006226c-10.422363,16.552673 -22.108521,33.843384 -25.969208,38.423828l-7.019287,8.328186l-12.562851,-41.433411c-6.909576,-22.78833 -13.425705,-42.62088 -14.480347,-44.072296c-1.058701,-1.457031 -6.554214,2.181213 -12.269958,8.123138c-11.496399,11.951538 -32.138565,25.065155 -43.962234,27.928589c-4.240326,1.026917 -7.709671,2.780334 -7.709671,3.896423c0,1.116089 5.871216,20.590027 13.047104,43.275452c7.175949,22.685425 13.04715,41.936035 13.04715,42.779175c0,3.226624 -23.327698,1.334106 -36.269455,-2.942505c-7.44931,-2.461609 -21.017258,-9.250244 -30.150986,-15.085632c-9.133759,-5.83551 -16.606804,-10.190979 -16.606804,-9.678833c0,0.512207 6.154572,20.505188 13.676834,44.428894l13.676796,43.497742l17.754929,11.255005c9.765213,6.190308 23.626175,13.211182 30.802094,15.602112c12.690598,4.228271 35.583115,6.293762 35.583115,3.210266zm331.997467,-165.877625c-6.696716,-21.309479 -13.347229,-40.54303 -14.779053,-42.741272c-3.993652,-6.131958 -22.474182,-17.19455 -40.513092,-24.251373c-18.369659,-7.18631 -43.119751,-8.749176 -41.174042,-2.599945c0.654724,2.069092 6.824249,21.706482 13.710022,43.638641l12.519623,39.876801l14.760376,0c15.93161,0 38.355682,7.809753 55.587799,19.359924c5.871216,3.935303 10.987549,6.774109 11.369568,6.308472c0.38208,-0.465637 -4.784363,-18.281738 -11.481201,-39.591248zm-390.011917,-13.928772c0.628006,-2.076324 -4.640656,-22.052277 -11.70813,-44.391083c-7.067474,-22.338837 -12.35553,-41.631714 -11.751236,-42.873108c0.604294,-1.241516 2.596939,-2.257233 4.42804,-2.257233c7.787521,0 30.53096,-13.393646 43.822311,-25.807098c14.162537,-13.227112 14.366089,-13.308716 16.406784,-6.58371c8.755905,28.85437 24.888184,79.319641 25.747528,80.543854c1.351028,1.92453 18.243057,-22.016235 36.603668,-51.87796c7.875122,-12.8078 15.090179,-22.681763 16.03363,-21.942017c0.943451,0.739807 7.358887,19.739624 14.2565,42.221985c6.897614,22.482391 13.315308,40.482147 14.261536,39.999481c0.946198,-0.482635 10.303864,-14.420624 20.794861,-30.973236c10.491028,-16.552551 21.82666,-33.339966 25.190369,-37.305267l6.115875,-7.209625l2.208374,7.209625c1.2146,3.965302 7.164063,23.406372 13.221161,43.202362c6.056976,19.795929 11.395996,36.47879 11.864319,37.072998c0.468353,0.594208 6.0271,-3.957275 12.352692,-10.114319c12.121765,-11.798798 33.73645,-25.30014 40.628204,-25.37796c11.423859,-0.128876 11.207031,-3.7453 -2.911194,-48.552704c-7.485229,-23.756134 -13.826904,-43.481628 -14.092529,-43.834442c-0.265625,-0.352875 -5.770782,1.133514 -12.233734,3.302979c-14.555054,4.885834 -27.916412,13.457794 -39.950348,25.630127c-5.072113,5.130402 -9.875763,9.317078 -10.674957,9.303802c-0.799103,-0.013306 -7.219818,-18.634979 -14.268127,-41.3815c-7.04837,-22.746582 -13.208923,-41.950043 -13.689941,-42.674408c-1.587708,-2.390686 -22.312622,24.992889 -36.87149,48.717743c-7.872131,12.828186 -15.072815,23.324097 -16.001556,23.324097c-0.928772,0 -7.397919,-18.358002 -14.375763,-40.795654c-6.977997,-22.437622 -13.32373,-41.2948 -14.101715,-41.904846c-0.777969,-0.610046 -9.050232,11.315125 -18.382751,26.500214c-16.936584,27.558044 -33.068817,49.424011 -34.65036,46.965912c-0.459686,-0.714508 -6.520523,-19.582245 -13.468475,-41.928253c-6.947983,-22.345947 -12.911148,-41.089752 -13.251495,-41.652863c-0.340332,-0.563049 -6.304794,4.347961 -13.254349,10.91333c-16.285522,15.385315 -21.615692,18.839661 -37.902367,24.56366l-13.405716,4.711365l12.812637,40.500397c7.046989,22.275238 12.812721,42.399872 12.812721,44.721527c0,3.410919 -3.009277,3.812347 -15.676979,2.091248c-17.55201,-2.384644 -34.151543,-8.950348 -52.577316,-20.796021c-6.8204,-4.384735 -12.400768,-6.820404 -12.400768,-5.412506c0,8.55191 24.747807,81.314026 29.477184,86.667297c15.582039,17.637543 75.229469,38.502563 78.56292,27.481812l-0.000015,0zm333.831863,-165.072632l-13.688507,-43.326569l-14.700897,-9.863556c-24.222015,-16.251617 -67.140259,-27.672363 -67.140259,-17.866364c0,2.128845 5.765137,22.104797 12.811462,44.391113l12.811523,40.520508l15.512207,1.990997c19.273468,2.473694 36.80426,9.114899 53.753113,20.363342c7.175934,4.762451 13.335754,8.312042 13.688507,7.888031c0.352722,-0.424011 -5.518494,-20.267853 -13.04715,-44.097504zm-131.348389,-59.64212c4.696075,-2.992859 12.80835,-7.082153 18.027191,-9.087067c5.218781,-2.005035 10.755219,-4.144165 12.30307,-4.753693c1.866302,-0.734924 -1.597015,-15.103882 -10.281708,-42.657684c-7.202728,-22.852234 -14.039368,-42.79277 -15.192444,-44.312302c-4.86438,-6.410355 -34.172363,9.502106 -56.338715,30.588425l-7.104828,6.758667l-13.009552,-41.250839c-7.155304,-22.687927 -14.144714,-41.730881 -15.532104,-42.317551c-2.363556,-0.999527 -40.219238,54.625519 -47.709152,70.103668c-3.148575,6.506592 -2.416779,10.274139 9.334717,48.061371c7.013107,22.55069 13.365295,41.48288 14.116043,42.071533c0.750763,0.588684 9.319489,-11.687622 19.041595,-27.28064c17.911774,-28.727982 32.511322,-48.515396 34.047882,-46.146545c0.697021,1.074463 18.027771,55.602539 25.531067,80.328796c2.061676,6.793793 2.073975,6.790161 13.146118,-3.932159c6.095337,-5.90274 14.924774,-13.181061 19.620819,-16.173981zm88.007294,-76.931702c0,-0.800507 -5.387665,-18.745071 -11.972687,-39.876785c-13.572113,-43.55397 -16.231384,-47.430275 -41.852692,-61.007225c-16.077515,-8.519623 -51.387939,-17.985397 -54.127289,-14.510025c-0.690369,0.875786 4.864502,21.430885 12.344238,45.67794l13.599335,44.085495l14.317261,0.040283c14.954437,0.042038 47.386292,12.279846 58.340851,22.014282c5.592651,4.969681 9.350983,6.406937 9.350983,3.576035z" id="path2396" fill="#ff0000"/>
  </g>
 </g>
</svg>